<?xml version="1.0" encoding="UTF-8"?>
<svg width="191px" height="231px" viewBox="0 0 191 231" version="1.1" xmlns="http://www.w3.org/2000/svg" xmlns:xlink="http://www.w3.org/1999/xlink">
    <!-- Generator: Sketch 46.1 (44463) - http://www.bohemiancoding.com/sketch -->
    <title>Combined Shape 2</title>
    <desc>Created with Sketch.</desc>
    <defs></defs>
    <g id="Page-4" stroke="none" stroke-width="1" fill="none" fill-rule="evenodd">
        <path d="M6.88009302,207.907808 L6.62708885,208.227724 C25.8571527,222.534112 49.6899193,231 75.5,231 C139.288889,231 191,179.288889 191,115.5 C191,51.8778608 139.558889,0.270436784 76,0.00105938462 L76,0.00700546058 C75.8339019,0.00234552152 75.6672249,0 75.5,0 C65.8350169,0 58,7.83501688 58,17.5 C58,27.1649831 65.8350169,35 75.5,35 C75.6672249,35 75.8339019,34.9976545 76,34.9929945 L76,35.0015202 C76.1665472,35.0005072 76.3332144,35 76.5,35 C120.958922,35 157,71.0410776 157,115.5 C157,159.958922 120.958922,196 76.5,196 C58.6101957,196 42.0833864,190.164325 28.7193314,180.292735 L28.5827077,180.465492 C25.6655368,178.288687 22.0468073,177 18.1270889,177 C8.46210573,177 0.627088852,184.835017 0.627088852,194.5 C0.627088852,199.882603 3.05717909,204.697628 6.88009302,207.907808 L6.88009302,207.907808 Z" id="Combined-Shape-2" fill="#1684E4"></path>
    </g>
</svg>